<svg height="2990" width="720" xmlns="http://www.w3.org/2000/svg">
<rect height="2990" fill="#555" width="720"></rect>
<text fill="#7f7" font-family="Courier New" font-size="12" xml:space="preserve">
<tspan x="10" y="26">└─┬ deployd@0.8.9 </tspan>
<tspan x="10" y="42">  ├─┬ async@2.3.0 </tspan>
<tspan x="10" y="58">  │ └── lodash@4.17.4 </tspan>
<tspan x="10" y="74">  ├── bluebird@3.5.0 </tspan>
<tspan x="10" y="90">  ├─┬ commander@2.9.0 </tspan>
<tspan x="10" y="106">  │ └── graceful-readlink@1.0.1 </tspan>
<tspan x="10" y="122">  ├─┬ cookies@0.6.2 </tspan>
<tspan x="10" y="138">  │ ├── depd@1.1.0 </tspan>
<tspan x="10" y="154">  │ └── keygrip@1.0.1 </tspan>
<tspan x="10" y="170">  ├── corser@2.0.1 </tspan>
<tspan x="10" y="186">  ├─┬ debug@2.6.3 </tspan>
<tspan x="10" y="202">  │ └── ms@0.7.2 </tspan>
<tspan x="10" y="218">  ├─┬ doh@0.0.4 </tspan>
<tspan x="10" y="234">  │ └── ejs@0.8.8 </tspan>
<tspan x="10" y="250">  ├── ejs@2.5.6 </tspan>
<tspan x="10" y="266">  ├─┬ filed@0.1.0 </tspan>
<tspan x="10" y="282">  │ └── mime@1.3.4 </tspan>
<tspan x="10" y="298">  ├─┬ fs-extra@0.30.0 </tspan>
<tspan x="10" y="314">  │ ├── graceful-fs@4.1.11 </tspan>
<tspan x="10" y="330">  │ ├── jsonfile@2.4.0 </tspan>
<tspan x="10" y="346">  │ ├── klaw@1.3.1 </tspan>
<tspan x="10" y="362">  │ ├── path-is-absolute@1.0.1 </tspan>
<tspan x="10" y="378">  │ └── rimraf@2.6.1 </tspan>
<tspan x="10" y="394">  ├─┬ mkdirp@0.5.1 </tspan>
<tspan x="10" y="410">  │ └── minimist@0.0.8 </tspan>
<tspan x="10" y="426">  ├─┬ mongodb@2.2.25 </tspan>
<tspan x="10" y="442">  │ ├── es6-promise@3.2.1 </tspan>
<tspan x="10" y="458">  │ ├─┬ mongodb-core@2.1.9 </tspan>
<tspan x="10" y="474">  │ │ ├── bson@1.0.4 </tspan>
<tspan x="10" y="490">  │ │ └─┬ require_optional@1.0.0 </tspan>
<tspan x="10" y="506">  │ │   └── resolve-from@2.0.0 </tspan>
<tspan x="10" y="522">  │ └─┬ readable-stream@2.1.5 </tspan>
<tspan x="10" y="538">  │   ├── buffer-shims@1.0.0 </tspan>
<tspan x="10" y="554">  │   ├── core-util-is@1.0.2 </tspan>
<tspan x="10" y="570">  │   ├── inherits@2.0.3 </tspan>
<tspan x="10" y="586">  │   ├── isarray@1.0.0 </tspan>
<tspan x="10" y="602">  │   ├── process-nextick-args@1.0.7 </tspan>
<tspan x="10" y="618">  │   ├── string_decoder@0.10.31 </tspan>
<tspan x="10" y="634">  │   └── util-deprecate@1.0.2 </tspan>
<tspan x="10" y="650">  ├── opener@1.4.3 </tspan>
<tspan x="10" y="666">  ├── qs@6.4.0 </tspan>
<tspan x="10" y="682">  ├─┬ request@2.74.0 </tspan>
<tspan x="10" y="698">  │ ├── aws-sign2@0.6.0 </tspan>
<tspan x="10" y="714">  │ ├── aws4@1.6.0 </tspan>
<tspan x="10" y="730">  │ ├─┬ bl@1.1.2 </tspan>
<tspan x="10" y="746">  │ │ └── readable-stream@2.0.6 </tspan>
<tspan x="10" y="762">  │ ├── caseless@0.11.0 </tspan>
<tspan x="10" y="778">  │ ├─┬ combined-stream@1.0.5 </tspan>
<tspan x="10" y="794">  │ │ └── delayed-stream@1.0.0 </tspan>
<tspan x="10" y="810">  │ ├── extend@3.0.0 </tspan>
<tspan x="10" y="826">  │ ├── forever-agent@0.6.1 </tspan>
<tspan x="10" y="842">  │ ├── form-data@1.0.1 </tspan>
<tspan x="10" y="858">  │ ├─┬ har-validator@2.0.6 </tspan>
<tspan x="10" y="874">  │ │ ├─┬ chalk@1.1.3 </tspan>
<tspan x="10" y="890">  │ │ │ ├── ansi-styles@2.2.1 </tspan>
<tspan x="10" y="906">  │ │ │ ├── escape-string-regexp@1.0.5 </tspan>
<tspan x="10" y="922">  │ │ │ ├─┬ has-ansi@2.0.0 </tspan>
<tspan x="10" y="938">  │ │ │ │ └── ansi-regex@2.1.1 </tspan>
<tspan x="10" y="954">  │ │ │ ├── strip-ansi@3.0.1 </tspan>
<tspan x="10" y="970">  │ │ │ └── supports-color@2.0.0 </tspan>
<tspan x="10" y="986">  │ │ ├─┬ is-my-json-valid@2.16.0 </tspan>
<tspan x="10" y="1002">  │ │ │ ├── generate-function@2.0.0 </tspan>
<tspan x="10" y="1018">  │ │ │ ├─┬ generate-object-property@1.2.0 </tspan>
<tspan x="10" y="1034">  │ │ │ │ └── is-property@1.0.2 </tspan>
<tspan x="10" y="1050">  │ │ │ ├── jsonpointer@4.0.1 </tspan>
<tspan x="10" y="1066">  │ │ │ └── xtend@4.0.1 </tspan>
<tspan x="10" y="1082">  │ │ └─┬ pinkie-promise@2.0.1 </tspan>
<tspan x="10" y="1098">  │ │   └── pinkie@2.0.4 </tspan>
<tspan x="10" y="1114">  │ ├─┬ hawk@3.1.3 </tspan>
<tspan x="10" y="1130">  │ │ ├── boom@2.10.1 </tspan>
<tspan x="10" y="1146">  │ │ ├── cryptiles@2.0.5 </tspan>
<tspan x="10" y="1162">  │ │ ├── hoek@2.16.3 </tspan>
<tspan x="10" y="1178">  │ │ └── sntp@1.0.9 </tspan>
<tspan x="10" y="1194">  │ ├─┬ http-signature@1.1.1 </tspan>
<tspan x="10" y="1210">  │ │ ├── assert-plus@0.2.0 </tspan>
<tspan x="10" y="1226">  │ │ ├─┬ jsprim@1.4.0 </tspan>
<tspan x="10" y="1242">  │ │ │ ├── assert-plus@1.0.0 </tspan>
<tspan x="10" y="1258">  │ │ │ ├── extsprintf@1.0.2 </tspan>
<tspan x="10" y="1274">  │ │ │ ├── json-schema@0.2.3 </tspan>
<tspan x="10" y="1290">  │ │ │ └── verror@1.3.6 </tspan>
<tspan x="10" y="1306">  │ │ └─┬ sshpk@1.11.0 </tspan>
<tspan x="10" y="1322">  │ │   ├── asn1@0.2.3 </tspan>
<tspan x="10" y="1338">  │ │   ├── assert-plus@1.0.0 </tspan>
<tspan x="10" y="1354">  │ │   ├── bcrypt-pbkdf@1.0.1 </tspan>
<tspan x="10" y="1370">  │ │   ├─┬ dashdash@1.14.1 </tspan>
<tspan x="10" y="1386">  │ │   │ └── assert-plus@1.0.0 </tspan>
<tspan x="10" y="1402">  │ │   ├── ecc-jsbn@0.1.1 </tspan>
<tspan x="10" y="1418">  │ │   ├─┬ getpass@0.1.6 </tspan>
<tspan x="10" y="1434">  │ │   │ └── assert-plus@1.0.0 </tspan>
<tspan x="10" y="1450">  │ │   ├── jodid25519@1.0.2 </tspan>
<tspan x="10" y="1466">  │ │   ├── jsbn@0.1.1 </tspan>
<tspan x="10" y="1482">  │ │   └── tweetnacl@0.14.5 </tspan>
<tspan x="10" y="1498">  │ ├── is-typedarray@1.0.0 </tspan>
<tspan x="10" y="1514">  │ ├── isstream@0.1.2 </tspan>
<tspan x="10" y="1530">  │ ├── json-stringify-safe@5.0.1 </tspan>
<tspan x="10" y="1546">  │ ├─┬ mime-types@2.1.15 </tspan>
<tspan x="10" y="1562">  │ │ └── mime-db@1.27.0 </tspan>
<tspan x="10" y="1578">  │ ├── node-uuid@1.4.8 </tspan>
<tspan x="10" y="1594">  │ ├── oauth-sign@0.8.2 </tspan>
<tspan x="10" y="1610">  │ ├── qs@6.2.3 </tspan>
<tspan x="10" y="1626">  │ ├── stringstream@0.0.5 </tspan>
<tspan x="10" y="1642">  │ ├─┬ tough-cookie@2.3.2 </tspan>
<tspan x="10" y="1658">  │ │ └── punycode@1.4.1 </tspan>
<tspan x="10" y="1674">  │ └── tunnel-agent@0.4.3 </tspan>
<tspan x="10" y="1690">  ├── scrubber@0.0.0 </tspan>
<tspan x="10" y="1706">  ├── semver@5.3.0 </tspan>
<tspan x="10" y="1722">  ├─┬ send@0.14.2 </tspan>
<tspan x="10" y="1738">  │ ├─┬ debug@2.2.0 </tspan>
<tspan x="10" y="1754">  │ │ └── ms@0.7.1 </tspan>
<tspan x="10" y="1770">  │ ├── destroy@1.0.4 </tspan>
<tspan x="10" y="1786">  │ ├── encodeurl@1.0.1 </tspan>
<tspan x="10" y="1802">  │ ├── escape-html@1.0.3 </tspan>
<tspan x="10" y="1818">  │ ├── etag@1.7.0 </tspan>
<tspan x="10" y="1834">  │ ├── fresh@0.3.0 </tspan>
<tspan x="10" y="1850">  │ ├─┬ http-errors@1.5.1 </tspan>
<tspan x="10" y="1866">  │ │ └── setprototypeof@1.0.2 </tspan>
<tspan x="10" y="1882">  │ ├─┬ on-finished@2.3.0 </tspan>
<tspan x="10" y="1898">  │ │ └── ee-first@1.1.1 </tspan>
<tspan x="10" y="1914">  │ ├── range-parser@1.2.0 </tspan>
<tspan x="10" y="1930">  │ └── statuses@1.3.1 </tspan>
<tspan x="10" y="1946">  ├─┬ shelljs@0.7.7 </tspan>
<tspan x="10" y="1962">  │ ├─┬ glob@7.1.1 </tspan>
<tspan x="10" y="1978">  │ │ ├── fs.realpath@1.0.0 </tspan>
<tspan x="10" y="1994">  │ │ ├─┬ inflight@1.0.6 </tspan>
<tspan x="10" y="2010">  │ │ │ └── wrappy@1.0.2 </tspan>
<tspan x="10" y="2026">  │ │ ├─┬ minimatch@3.0.3 </tspan>
<tspan x="10" y="2042">  │ │ │ └─┬ brace-expansion@1.1.6 </tspan>
<tspan x="10" y="2058">  │ │ │   ├── balanced-match@0.4.2 </tspan>
<tspan x="10" y="2074">  │ │ │   └── concat-map@0.0.1 </tspan>
<tspan x="10" y="2090">  │ │ └── once@1.4.0 </tspan>
<tspan x="10" y="2106">  │ ├── interpret@1.0.2 </tspan>
<tspan x="10" y="2122">  │ └─┬ rechoir@0.6.2 </tspan>
<tspan x="10" y="2138">  │   └─┬ resolve@1.3.2 </tspan>
<tspan x="10" y="2154">  │     └── path-parse@1.0.5 </tspan>
<tspan x="10" y="2170">  ├─┬ socket.io@1.7.3 </tspan>
<tspan x="10" y="2186">  │ ├── debug@2.3.3 </tspan>
<tspan x="10" y="2202">  │ ├─┬ engine.io@1.8.3 </tspan>
<tspan x="10" y="2218">  │ │ ├─┬ accepts@1.3.3 </tspan>
<tspan x="10" y="2234">  │ │ │ └── negotiator@0.6.1 </tspan>
<tspan x="10" y="2250">  │ │ ├── base64id@1.0.0 </tspan>
<tspan x="10" y="2266">  │ │ ├── cookie@0.3.1 </tspan>
<tspan x="10" y="2282">  │ │ ├── debug@2.3.3 </tspan>
<tspan x="10" y="2298">  │ │ ├─┬ engine.io-parser@1.3.2 </tspan>
<tspan x="10" y="2314">  │ │ │ ├── after@0.8.2 </tspan>
<tspan x="10" y="2330">  │ │ │ ├── arraybuffer.slice@0.0.6 </tspan>
<tspan x="10" y="2346">  │ │ │ ├── base64-arraybuffer@0.1.5 </tspan>
<tspan x="10" y="2362">  │ │ │ ├── blob@0.0.4 </tspan>
<tspan x="10" y="2378">  │ │ │ └── wtf-8@1.0.0 </tspan>
<tspan x="10" y="2394">  │ │ └─┬ ws@1.1.2 </tspan>
<tspan x="10" y="2410">  │ │   ├── options@0.0.6 </tspan>
<tspan x="10" y="2426">  │ │   └── ultron@1.0.2 </tspan>
<tspan x="10" y="2442">  │ ├─┬ has-binary@0.1.7 </tspan>
<tspan x="10" y="2458">  │ │ └── isarray@0.0.1 </tspan>
<tspan x="10" y="2474">  │ ├── object-assign@4.1.0 </tspan>
<tspan x="10" y="2490">  │ ├─┬ socket.io-adapter@0.5.0 </tspan>
<tspan x="10" y="2506">  │ │ └── debug@2.3.3 </tspan>
<tspan x="10" y="2522">  │ ├─┬ socket.io-client@1.7.3 </tspan>
<tspan x="10" y="2538">  │ │ ├── backo2@1.0.2 </tspan>
<tspan x="10" y="2554">  │ │ ├── component-bind@1.0.0 </tspan>
<tspan x="10" y="2570">  │ │ ├── component-emitter@1.2.1 </tspan>
<tspan x="10" y="2586">  │ │ ├── debug@2.3.3 </tspan>
<tspan x="10" y="2602">  │ │ ├─┬ engine.io-client@1.8.3 </tspan>
<tspan x="10" y="2618">  │ │ │ ├── component-emitter@1.2.1 </tspan>
<tspan x="10" y="2634">  │ │ │ ├── component-inherit@0.0.3 </tspan>
<tspan x="10" y="2650">  │ │ │ ├── debug@2.3.3 </tspan>
<tspan x="10" y="2666">  │ │ │ ├── has-cors@1.1.0 </tspan>
<tspan x="10" y="2682">  │ │ │ ├── parsejson@0.0.3 </tspan>
<tspan x="10" y="2698">  │ │ │ ├── parseqs@0.0.5 </tspan>
<tspan x="10" y="2714">  │ │ │ ├── xmlhttprequest-ssl@1.5.3 </tspan>
<tspan x="10" y="2730">  │ │ │ └── yeast@0.1.2 </tspan>
<tspan x="10" y="2746">  │ │ ├── indexof@0.0.1 </tspan>
<tspan x="10" y="2762">  │ │ ├── object-component@0.0.3 </tspan>
<tspan x="10" y="2778">  │ │ ├─┬ parseuri@0.0.5 </tspan>
<tspan x="10" y="2794">  │ │ │ └─┬ better-assert@1.0.2 </tspan>
<tspan x="10" y="2810">  │ │ │   └── callsite@1.0.0 </tspan>
<tspan x="10" y="2826">  │ │ └── to-array@0.1.4 </tspan>
<tspan x="10" y="2842">  │ └─┬ socket.io-parser@2.3.1 </tspan>
<tspan x="10" y="2858">  │   ├── component-emitter@1.1.2 </tspan>
<tspan x="10" y="2874">  │   ├─┬ debug@2.2.0 </tspan>
<tspan x="10" y="2890">  │   │ └── ms@0.7.1 </tspan>
<tspan x="10" y="2906">  │   ├── isarray@0.0.1 </tspan>
<tspan x="10" y="2922">  │   └── json3@3.3.2 </tspan>
<tspan x="10" y="2938">  ├── step@0.0.6 </tspan>
<tspan x="10" y="2954">  ├── underscore@1.8.3 </tspan>
<tspan x="10" y="2970">  └── validation@0.0.1</tspan>
</text>
</svg>
